<svg data-v-423bf9ae="" xmlns="http://www.w3.org/2000/svg" viewBox="0 0 450.5487697795345 60" class="font"><!----><!----><!----><g data-v-423bf9ae="" id="6ce25d74-589b-480d-98de-581899cefc47" fill="#0F1507" transform="matrix(6.097560881055492,0,0,6.097560881055492,-2.5609827983032574,-5.121951462823951)"><path d="M5.50 10.50L8.75 10.50L8.75 1.12L5.50 1.12L5.50 4.58L3.67 4.58L3.67 1.12L0.42 1.12L0.42 10.50L3.67 10.50L3.67 7.22L5.50 7.22ZM13.12 3.25C10.70 3.25 9.38 4.27 9.38 6.96C9.38 9.69 10.70 10.68 13.12 10.68C15.54 10.68 16.86 9.69 16.86 6.96C16.86 4.27 15.54 3.25 13.12 3.25ZM13.12 8.15C12.68 8.15 12.54 7.87 12.54 6.96C12.54 6.06 12.68 5.78 13.12 5.78C13.55 5.78 13.69 6.05 13.69 6.96C13.69 7.87 13.55 8.15 13.12 8.15ZM20.89 5.96L22.02 5.96L22.02 3.43L20.89 3.43L20.89 2.03L17.75 2.03L17.75 3.43L17.21 3.43L17.21 5.96L17.75 5.96L17.75 8.15C17.75 10.15 18.49 10.68 20.17 10.68C20.82 10.68 22.02 10.43 22.02 10.43L21.98 7.99C21.98 7.99 21.63 8.01 21.35 8.01C20.96 8.01 20.89 7.87 20.89 7.42ZM26.29 8.37C25.82 8.37 25.62 8.23 25.61 7.88L29.65 7.88L29.79 6.50C29.79 4.27 28.56 3.25 26.14 3.25C23.53 3.25 22.47 4.63 22.47 7.10C22.47 9.58 23.41 10.68 26.07 10.68C27.79 10.68 29.65 10.28 29.65 10.28L29.58 8.25C29.58 8.25 27.58 8.37 26.29 8.37ZM25.59 6.17C25.61 5.66 25.72 5.43 26.14 5.43C26.52 5.43 26.66 5.64 26.66 6.17ZM30.38 10.50L33.52 10.50L33.52 0.84L30.38 0.84ZM34.31 8.25L38.49 8.25L38.49 5.71L34.31 5.71ZM43.36 8.08L43.89 10.50L47.19 10.50L46.27 7.31C46.94 6.76 47.31 5.89 47.31 4.58C47.31 1.76 45.99 1.12 43.26 1.12L39.31 1.12L39.31 10.50L42.56 10.50L42.56 8.08L43.34 8.08ZM44.03 4.58C44.03 5.17 43.81 5.52 43.34 5.52L42.55 5.52L42.55 3.68L43.26 3.68C43.79 3.68 44.03 3.99 44.03 4.58ZM51.49 8.37C51.02 8.37 50.82 8.23 50.81 7.88L54.85 7.88L54.99 6.50C54.99 4.27 53.76 3.25 51.34 3.25C48.73 3.25 47.67 4.63 47.67 7.10C47.67 9.58 48.61 10.68 51.27 10.68C52.99 10.68 54.85 10.28 54.85 10.28L54.78 8.25C54.78 8.25 52.78 8.37 51.49 8.37ZM50.79 6.17C50.81 5.66 50.92 5.43 51.34 5.43C51.72 5.43 51.86 5.64 51.86 6.17ZM55.58 10.50L58.72 10.50L58.72 0.84L55.58 0.84ZM63.14 8.37C62.66 8.37 62.47 8.23 62.45 7.88L66.50 7.88L66.64 6.50C66.64 4.27 65.41 3.25 62.99 3.25C60.38 3.25 59.32 4.63 59.32 7.10C59.32 9.58 60.26 10.68 62.92 10.68C64.64 10.68 66.50 10.28 66.50 10.28L66.43 8.25C66.43 8.25 64.43 8.37 63.14 8.37ZM62.44 6.17C62.45 5.66 62.57 5.43 62.99 5.43C63.36 5.43 63.50 5.64 63.50 6.17ZM68.14 7L66.75 10.50L69.86 10.50L70.32 8.72L70.88 10.50L74.27 10.50L73.07 6.94L74.31 3.43L71.23 3.43L70.67 5.42L70.11 3.43L66.75 3.43Z"></path></g><!----><!----></svg>